<?xml version="1.0" standalone="no"?>
<!DOCTYPE svg PUBLIC "-//W3C//DTD SVG 20010904//EN"
 "http://www.w3.org/TR/2001/REC-SVG-20010904/DTD/svg10.dtd">
<svg version="1.0" xmlns="http://www.w3.org/2000/svg"
 width="500.000000pt" height="500.000000pt" viewBox="0 0 500.000000 500.000000"
 preserveAspectRatio="xMidYMid meet">
<metadata>
Created by potrace 1.16, written by Peter Selinger 2001-2019
</metadata>
<g transform="translate(0.000000,500.000000) scale(0.100000,-0.100000)"
fill="#000000" stroke="none">
<path d="M724 3241 c3 -4 127 -6 275 -3 147 3 280 2 293 -1 16 -4 38 -28 62
-67 21 -34 36 -63 34 -66 -3 -2 -21 3 -41 11 -28 12 -79 15 -222 15 l-185 0
103 -152 c57 -84 176 -262 266 -395 l163 -242 -98 -143 c-54 -79 -152 -224
-219 -323 -286 -423 -254 -383 -363 -453 -53 -34 -116 -72 -140 -84 -53 -28
-66 -63 -32 -90 21 -17 48 -18 374 -18 262 0 357 3 376 13 14 7 58 60 98 117
199 288 244 350 250 350 4 -1 71 -96 149 -213 78 -117 154 -224 169 -238 l26
-24 335 -3 c290 -2 339 -1 359 13 34 22 31 64 -9 117 -34 45 -356 513 -517
751 l-93 138 179 266 c98 146 237 348 308 447 150 211 153 217 138 251 -15 32
-60 44 -77 21 -7 -9 -59 -35 -116 -59 l-104 -42 -199 -5 -199 -5 -190 -294
c-105 -161 -193 -289 -195 -283 -1 5 16 38 38 73 l41 64 -23 15 c-12 8 -36 27
-52 41 -26 23 -29 30 -20 50 9 20 1 36 -64 128 -40 59 -97 140 -125 181 -29
41 -68 92 -88 112 l-37 38 -316 0 c-177 0 -315 -4 -312 -9z"/>
<path d="M3147 3220 c-14 -11 -75 -94 -134 -183 -59 -89 -111 -166 -115 -172
-9 -11 -122 -178 -357 -529 -118 -176 -161 -247 -161 -269 0 -22 39 -89 137
-239 75 -115 146 -214 157 -221 15 -9 105 -12 316 -12 l295 0 5 -163 c5 -158
6 -165 29 -183 23 -19 40 -20 368 -17 328 3 345 4 359 22 11 15 14 57 14 178
l0 158 64 0 c77 0 111 11 127 41 8 17 11 105 10 318 -2 355 3 338 -120 343
l-76 3 4 445 c3 435 3 446 -17 470 l-20 25 -429 3 c-421 3 -430 2 -456 -18z
m665 -587 l-4 -478 105 3 104 3 -5 -28 c-4 -19 -7 -22 -10 -10 -3 15 -16 17
-93 17 -57 0 -88 -4 -84 -10 4 -6 -1 -7 -11 -3 -11 4 -15 3 -10 -5 3 -6 -10
-20 -32 -32 -20 -12 -47 -38 -58 -58 -11 -20 -25 -36 -32 -35 -6 2 -16 -5 -21
-16 -13 -24 -67 -81 -77 -81 -4 0 -18 -10 -31 -21 -20 -19 -25 -20 -40 -8 -17
13 -17 13 -3 -5 14 -18 13 -18 -10 -13 -14 4 -20 4 -14 1 7 -3 10 -22 7 -47
-2 -23 -8 -107 -12 -187 l-8 -145 -2 193 -1 193 -373 -7 -372 -7 -83 126 c-45
69 -82 129 -82 134 0 4 76 121 169 258 93 138 244 361 335 498 l166 247 294 0
293 0 -5 -477z"/>
<path d="M3462 2924 c-2 -9 -114 -177 -387 -575 -49 -73 -98 -145 -108 -161
l-19 -28 255 0 255 0 7 203 c5 175 4 592 -3 561z"/>
<path d="M680 3194 c0 -34 -5 -25 307 -497 240 -362 265 -397 286 -392 19 5
29 -1 52 -34 15 -23 33 -41 39 -41 9 0 71 83 84 112 4 9 -500 758 -524 779
-18 15 -217 99 -236 99 -4 0 -8 -12 -8 -26z"/>
</g>
</svg>
